<?xml version="1.0" encoding="UTF-8"?>
<svg version="1.1" xmlns="http://www.w3.org/2000/svg" width="273" height="434">
<path d="M0 0 C0.94617188 0.51691406 1.89234375 1.03382812 2.8671875 1.56640625 C19.15318298 10.87631332 31.85562808 24.4232467 42 40 C42.64839844 40.98742188 43.29679688 41.97484375 43.96484375 42.9921875 C59.59304914 68.22985834 63.17260931 100.47955925 56.84936523 129.19995117 C54.59486337 138.4049457 51.41110954 147.59788659 47 156 C48.05058594 156.4846875 49.10117188 156.969375 50.18359375 157.46875 C63.8880422 163.94297115 73.87202701 171.13814078 80.09765625 185.5390625 C83.36415544 195.11066478 82.90035774 204.70365863 79 214 C72.39953504 227.32093837 62.30410759 235.0372891 48.484375 240.1875 C37.50685672 243.77763176 26.35608337 243.80369812 15 242 C8.07457377 260.54896994 1.4336665 279.19358544 -5.125 297.875 C-5.53056122 299.03008057 -5.93612244 300.18516113 -6.35397339 301.37524414 C-8.01107466 306.09536552 -9.66794837 310.81556669 -11.32447815 315.53588867 C-17.19675273 332.26496653 -23.10683333 348.98053211 -29.05247498 365.68367004 C-30.99854962 371.15763674 -32.92295524 376.63857194 -34.82763672 382.1270752 C-35.99764547 385.49202664 -37.17964724 388.85268587 -38.36407471 392.21258545 C-38.90367008 393.75249808 -39.43785199 395.29432076 -39.96600342 396.8381958 C-46.01524987 414.50762493 -46.01524987 414.50762493 -53 418 C-58.34012755 418.3501723 -61.67913597 418.48069602 -66 415 C-69.55444718 411.12827875 -71.32407552 407.12646402 -73.00390625 402.22265625 C-73.2794635 401.44446533 -73.55502075 400.66627441 -73.83892822 399.86450195 C-74.75611797 397.26701552 -75.65916722 394.66483462 -76.5625 392.0625 C-77.21285766 390.21313363 -77.86416676 388.36410161 -78.51635742 386.51538086 C-80.30405366 381.44036836 -82.07970338 376.36121426 -83.85327148 371.28125 C-87.08149284 362.04401453 -90.33047231 352.81403329 -93.57553101 343.58270264 C-94.80963803 340.07064469 -96.04216148 336.55803348 -97.2746582 333.04541016 C-101.70534323 320.43087569 -106.20963853 307.85422334 -110.91479492 295.33935547 C-113.59967661 288.1728743 -116.06825405 280.95280277 -118.44458008 273.67871094 C-121.71818279 263.69847727 -125.35886044 253.85090126 -129 244 C-129.57331055 243.96036133 -130.14662109 243.92072266 -130.73730469 243.87988281 C-152.39027982 242.3078056 -152.39027982 242.3078056 -162 238 C-163.17175781 237.47792969 -163.17175781 237.47792969 -164.3671875 236.9453125 C-175.33469677 231.44258293 -184.29701185 222.2258253 -188.875 210.8125 C-191.83896895 200.64271431 -190.58319333 190.4192525 -186 181 C-184.125 177.75 -184.125 177.75 -182 175 C-181.59265625 174.44957031 -181.1853125 173.89914063 -180.765625 173.33203125 C-175.34183107 166.43040582 -168.4119768 161.50647564 -160 159 C-160.44730469 158.18660156 -160.89460938 157.37320313 -161.35546875 156.53515625 C-164.83624447 149.93726795 -167.72192789 143.48399726 -169.8125 136.3125 C-170.00674561 135.64935791 -170.20099121 134.98621582 -170.40112305 134.30297852 C-173.35002623 123.68200575 -174.3897068 113.45779622 -174.375 102.4375 C-174.37478851 101.77903076 -174.37457703 101.12056152 -174.37435913 100.44213867 C-174.3392641 89.46321461 -173.32900996 79.45336082 -170 69 C-169.61457031 67.75476563 -169.22914063 66.50953125 -168.83203125 65.2265625 C-162.65233703 46.7874749 -152.5245438 31.7326137 -139 18 C-138.17113281 17.14664063 -137.34226563 16.29328125 -136.48828125 15.4140625 C-100.34218962 -19.68030517 -43.03803369 -24.00150765 0 0 Z " fill="#442C9C" transform="translate(190,15)"/>
<path d="M0 0 C2.79238709 1.27583203 4.80249205 2.62116417 7 4.75 C19.83023205 15.93883776 35.70360665 17.91168634 52 17 C55.17030672 16.660829 57.98109192 16.01333978 61 15 C62.02609375 14.67 63.0521875 14.34 64.109375 14 C71.47283708 11.42109162 77.19085164 8.20871959 83 3 C86.21977235 4.5020647 89.01486908 6.36212036 91.9375 8.375 C97.94824121 12.26573654 104.10260014 14.23452881 111 16 C110.45085937 17.35738281 110.45085937 17.35738281 109.890625 18.7421875 C104.40427692 32.49123422 99.55406577 46.4639369 94.65802002 60.43031311 C91.04501096 70.73250228 87.39658041 81.02215685 83.75 91.3125 C83.21320114 92.82742538 83.21320114 92.82742538 82.66555786 94.37295532 C80.84042356 99.52351716 79.01487327 104.6739313 77.18896484 109.82421875 C75.73783872 113.91763969 74.28767717 118.0114003 72.83837891 122.10546875 C69.12708261 132.58787883 65.40531813 143.06633763 61.65745544 153.53573608 C59.98730906 158.20814926 58.33950376 162.88715351 56.72297668 167.5783844 C56.04848393 169.52912425 55.36504297 171.47643681 54.67749023 173.42260742 C53.88666983 175.6642773 53.11109096 177.91142324 52.35571289 180.1652832 C50.19685948 186.19487168 47.78492377 190.81642531 42 194 C38.10543927 194.88463965 34.93532624 194.40389088 31.25 192.8125 C26.26294688 188.79515165 24.03310498 184.16915509 21.99609375 178.22265625 C21.7205365 177.44446533 21.44497925 176.66627441 21.16107178 175.86450195 C20.24388203 173.26701552 19.34083278 170.66483462 18.4375 168.0625 C17.78714234 166.21313363 17.13583324 164.36410161 16.48364258 162.51538086 C14.69594634 157.44036836 12.92029662 152.36121426 11.14672852 147.28125 C7.91850716 138.04401453 4.66952769 128.81403329 1.42446899 119.58270264 C0.19036197 116.07064469 -1.04216148 112.55803348 -2.2746582 109.04541016 C-6.70534323 96.43087569 -11.20963853 83.85422334 -15.91479492 71.33935547 C-18.59967661 64.1728743 -21.06825405 56.95280277 -23.44458008 49.67871094 C-26.7188732 39.69637242 -30.37423116 29.85954684 -34 20 C-40.93 19.34 -47.86 18.68 -55 18 C-55 17.67 -55 17.34 -55 17 C-54.37544922 17.04600342 -53.75089844 17.09200684 -53.10742188 17.1394043 C-50.23922655 17.34029474 -47.36998084 17.51405968 -44.5 17.6875 C-43.51773438 17.76033203 -42.53546875 17.83316406 -41.5234375 17.90820312 C-35.21267609 18.26581294 -30.7039442 17.68303718 -25 15 C-23.98035156 14.61199219 -22.96070313 14.22398437 -21.91015625 13.82421875 C-13.68896807 10.54250989 -5.95677804 6.73374909 0 0 Z " fill="#C3996D" transform="translate(95,239)"/>
<path d="M0 0 C1.31869792 3.95609375 0.33490257 5.53069792 -1.08984375 9.41796875 C-1.42490685 10.34383537 -1.42490685 10.34383537 -1.76673889 11.28840637 C-2.4817611 13.25801757 -3.20942482 15.22268122 -3.9375 17.1875 C-4.42466826 18.52248017 -4.91100665 19.8577635 -5.39648438 21.19335938 C-6.58804889 24.46581127 -7.79099411 27.73394567 -9 31 C-10.46379189 28.68194471 -11.10327203 27.54633455 -10.58447266 24.80175781 C-10.2807373 24.02670898 -9.97700195 23.25166016 -9.6640625 22.453125 C-9.34179688 21.60878906 -9.01953125 20.76445312 -8.6875 19.89453125 C-8.336875 19.02183594 -7.98625 18.14914062 -7.625 17.25 C-7.28210938 16.36183594 -6.93921875 15.47367187 -6.5859375 14.55859375 C-5.73746345 12.36670246 -4.87519347 10.18132941 -4 8 C-3.34 8 -2.68 8 -2 8 C-2 6.02 -2 4.04 -2 2 C-1.34 2 -0.68 2 0 2 C0 1.34 0 0.68 0 0 Z " fill="#BEA995" transform="translate(164,366)"/>
<path d="M0 0 C0.66 0.33 1.32 0.66 2 1 C-4.93 7.93 -11.86 14.86 -19 22 C-19.66 21.67 -20.32 21.34 -21 21 C-14.47429312 13.40315437 -7.47007318 6.64849153 0 0 Z " fill="#9182C4" transform="translate(62,23)"/>
<path d="M0 0 C2 1 2 1 2.86962891 3.04125977 C3.15241699 3.91580811 3.43520508 4.79035645 3.7265625 5.69140625 C4.0359375 6.63564453 4.3453125 7.57988281 4.6640625 8.55273438 C4.98117188 9.54595703 5.29828125 10.53917969 5.625 11.5625 C5.94984375 12.55958984 6.2746875 13.55667969 6.609375 14.58398438 C7.41298199 17.05389411 8.20951542 19.5258654 9 22 C8.34 22.66 7.68 23.32 7 24 C5.81987249 20.94251918 4.65833833 17.87829508 3.5 14.8125 C3.16613281 13.94818359 2.83226563 13.08386719 2.48828125 12.19335938 C2.17246094 11.35224609 1.85664062 10.51113281 1.53125 9.64453125 C1.23798828 8.87471924 0.94472656 8.10490723 0.64257812 7.31176758 C-0.060867 4.78102218 -0.11322191 2.61421293 0 0 Z " fill="#B59C86" transform="translate(112,398)"/>
<path d="M0 0 C0.99 0.33 1.98 0.66 3 1 C3 1.66 3 2.32 3 3 C7.92737019 4.97094808 11.78020872 5.1799928 17 5 C16.67 5.99 16.34 6.98 16 8 C9.50041292 8.33048748 6.23161996 7.78587927 1.1875 3.4375 C0 2 0 2 0 0 Z " fill="#B79E89" transform="translate(121,425)"/>
<path d="M0 0 C0.66 0.33 1.32 0.66 2 1 C-2.62 5.62 -7.24 10.24 -12 15 C-12 10.09687565 -8.29800369 7.38658643 -5 4 C-3.37458956 2.61667196 -1.72614587 1.25537882 0 0 Z " fill="#9789C7" transform="translate(19,179)"/>
<path d="M0 0 C2.63595772 2.63595772 3.07702112 5.06187181 4.125 8.625 C4.47820312 9.81351562 4.83140625 11.00203125 5.1953125 12.2265625 C5.46085937 13.14179688 5.72640625 14.05703125 6 15 C5.34 15.66 4.68 16.32 4 17 C-0.59225513 5.47835991 -0.59225513 5.47835991 0 0 Z " fill="#B39A83" transform="translate(68,273)"/>
<path d="M0 0 C2.36253009 2.36253009 3.037848 4.31227271 4.1875 7.4375 C4.55230469 8.40558594 4.91710937 9.37367188 5.29296875 10.37109375 C6 13 6 13 5 16 C5 15.34 5 14.68 5 14 C4.34 14 3.68 14 3 14 C-0.44419134 4.58997722 -0.44419134 4.58997722 0 0 Z " fill="#AF967F" transform="translate(105,378)"/>
<path d="M0 0 C0.66 0 1.32 0 2 0 C1.00956295 4.83628305 0.04301154 9.47618873 -2 14 C-2.33 14 -2.66 14 -3 14 C-2.58846263 9.02906176 -2.20399168 4.55491614 0 0 Z " fill="#BBA591" transform="translate(170,346)"/>
<path d="M0 0 C3.26845713 4.90268569 4.27944109 9.13173703 4 15 C2.40626099 12.60939149 1.34702924 10.69171821 0.3125 8.0625 C0.04050781 7.39347656 -0.23148437 6.72445313 -0.51171875 6.03515625 C-1.0787676 3.67169662 -0.76024003 2.2807201 0 0 Z " fill="#B9A28D" transform="translate(91,337)"/>
<path d="M0 0 C0.99 0.33 1.98 0.66 3 1 C3.33 3.97 3.66 6.94 4 10 C1.81024227 6.71536341 1.00193437 3.79303725 0 0 Z " fill="#C2AF9D" transform="translate(96,356)"/>
<path d="M0 0 C2.39763185 2.39763185 2.34280586 3.33273498 2.625 6.625 C2.69976562 7.44226563 2.77453125 8.25953125 2.8515625 9.1015625 C2.90054688 9.72804688 2.94953125 10.35453125 3 11 C0.2441427 6.86621405 -0.10756445 4.94796454 0 0 Z " fill="#B79F8B" transform="translate(81,310)"/>
<path d="M0 0 C2.39763185 2.39763185 2.34280586 3.33273498 2.625 6.625 C2.69976562 7.44226563 2.77453125 8.25953125 2.8515625 9.1015625 C2.90054688 9.72804688 2.94953125 10.35453125 3 11 C0.2441427 6.86621405 -0.10756445 4.94796454 0 0 Z " fill="#B7A18D" transform="translate(76,296)"/>
<path d="M0 0 C0.66 0 1.32 0 2 0 C1.5020163 3.73487777 1.12508244 5.81237635 -1 9 C-2.0326802 6.21176345 -2.04509293 5.1322726 -1.0625 2.25 C-0.711875 1.5075 -0.36125 0.765 0 0 Z " fill="#C0AA97" transform="translate(155,388)"/>
</svg>
